<svg id="Capa_1" enable-background="new 0 0 512 512" height="512" viewBox="0 0 512 512" width="512" xmlns="http://www.w3.org/2000/svg"><g><g><path d="m256.19 512c-4.068 0-7.808-2.552-9.3-6.332-1.509-3.824-.477-8.31 2.575-11.075 3.191-2.89 7.987-3.395 11.712-1.247 3.571 2.059 5.54 6.211 4.872 10.282-.78 4.755-5.039 8.372-9.859 8.372z"/><g><path d="m265.165 302.425v-7.081c3.266 1.893 7.469 1.846 10.763-.465 4.521-3.172 5.615-9.408 2.443-13.93-2.788-3.973-7.458-7.403-13.463-9.113-1.024-4.435-4.998-7.741-9.744-7.741-4.952 0-9.062 3.599-9.859 8.324-8.852 2.784-15.255 11.057-15.968 20.672-.699 9.422 4.455 17.909 13.449 22.149.625.295 1.425.644 2.378 1.039v11.69c-3.501-4.092-9.645-4.684-13.868-1.284-4.301 3.465-4.979 9.76-1.515 14.061 4.137 5.137 9.887 8.233 15.732 9.881 1.153 4.249 5.037 7.375 9.651 7.375 4.367 0 8.079-2.799 9.442-6.701 10.816-2.481 18.337-10.097 19.634-20.312 1.558-12.261-6.282-23.99-19.075-28.564z"/><path d="m472.247 443.147h-17.269v-35.108c0-5.522-4.477-10-10-10h-18.488v-174.328h18.488c5.523 0 10-4.478 10-10v-35.109h11.451c5.523 0 10-4.478 10-10v-48.445c0-5.523-4.477-10-10-10h-12.389l-193.129-108.868c-3.049-1.719-6.772-1.719-9.821 0l-193.13 108.867h-12.389c-5.523 0-10 4.477-10 10v48.445c0 5.522 4.477 10 10 10h11.451v35.109c0 5.522 4.477 10 10 10h18.488v174.328h-18.488c-5.523 0-10 4.478-10 10v35.108h-17.269c-5.523 0-10 4.478-10 10v48.854c0 5.522 4.477 10 10 10h171.002c5.523 0 10-4.478 10-10s-4.477-10-10-10h-161.002v-28.853h412.494v28.853h-161.001c-5.523 0-10 4.478-10 10s4.477 10 10 10h171.001c5.523 0 10-4.478 10-10v-48.853c0-5.522-4.477-10-10-10zm-65.757-45.108h-32.328v-174.328h32.328zm-70.816 0c-5.523 0-10 4.478-10 10v35.108h-139.348v-35.108c0-5.522-4.477-10-10-10h-18.488v-174.328h18.488c5.523 0 10-4.478 10-10v-35.109h139.348v35.109c0 5.522 4.477 10 10 10h18.488v174.328zm99.304-194.328h-89.304v-25.109h89.304zm-188.794-176.698v31.483c0 5.522 4.477 10 10 10s10-4.478 10-10v-31.276l147.128 82.936h-314.624zm-190.613 103.143h400.858v28.445h-400.858zm21.451 48.446h89.304v25.109h-89.304zm28.488 45.109h32.328v174.328h-32.328zm-28.488 219.436v-25.108h89.304v25.108zm268.652 0v-25.108h89.304v25.108z"/><path d="m256 392.287c-20.816 0-41.626-7.921-57.474-23.768-15.331-15.33-23.773-35.74-23.773-57.472s8.442-42.142 23.773-57.471c31.691-31.689 83.256-31.69 114.946-.001 15.331 15.33 23.773 35.74 23.773 57.473 0 21.732-8.443 42.142-23.773 57.472-15.843 15.843-36.661 23.767-57.472 23.767zm.001-142.487c-15.694 0-31.384 5.972-43.333 17.92-11.553 11.552-17.915 26.94-17.915 43.328 0 16.389 6.362 31.777 17.915 43.329 23.894 23.892 62.77 23.893 86.663.001 11.553-11.552 17.915-26.94 17.915-43.33 0-16.389-6.362-31.777-17.915-43.329-11.944-11.945-27.64-17.919-43.33-17.919zm50.401 111.649h.01z"/></g></g></g></svg>