<?xml version="1.0" encoding="iso-8859-1"?>
<!-- Generator: Adobe Illustrator 19.0.0, SVG Export Plug-In . SVG Version: 6.00 Build 0)  -->
<svg version="1.1" id="Capa_1" xmlns="http://www.w3.org/2000/svg" xmlns:xlink="http://www.w3.org/1999/xlink" x="0px" y="0px"
	 viewBox="0 0 511.999 511.999" style="enable-background:new 0 0 511.999 511.999;" xml:space="preserve">
<g>
	<g>
		<path d="M386.621,293.593l58.346-33.503l-27.509-61.399l27.509-61.398l-58.346-33.503l-13.834-65.842l-66.894,7.19L255.999,0
			l-49.893,45.136l-66.894-7.19l-13.833,65.842l-58.346,33.503l27.509,61.398l-27.509,61.399l58.346,33.503l13.833,65.843
			l2.024-0.218L93.051,461.606l64.998,0.85l42.084,49.543l54.515-115.839l1.35,1.222l1.35-1.222l54.515,115.839l42.084-49.543
			l64.998-0.85l-48.183-102.387l2.024,0.218L386.621,293.593z M192.833,457.066l-20.75-24.428l-32.047-0.419l36.121-76.755
			l29.95-3.219l25.289,22.878L192.833,457.066z M371.963,432.219l-32.047,0.419l-20.75,24.428l-38.563-81.943l25.289-22.877
			l29.95,3.219L371.963,432.219z M360.028,274.273l-11.017,52.437l-53.275-5.727L256,356.93l-39.736-35.947l-52.854,5.681
			l-0.478-0.225l-10.96-52.167l-46.466-26.682l21.909-48.898l-21.909-48.898l46.466-26.682l11.017-52.437l53.275,5.726L256,40.453
			L295.736,76.4l53.275-5.726l11.017,52.437l46.466,26.682l-21.909,48.898l21.909,48.898L360.028,274.273z"/>
	</g>
</g>
<g>
	<g>
		<path d="M255.999,86.692C194.243,86.692,144,136.935,144,198.691s50.243,112,111.999,112c61.757,0,111.999-50.243,111.999-111.999
			S317.755,86.692,255.999,86.692z M255.999,280.691c-45.214,0-82-36.786-82-82c0-45.214,36.786-82,82-82c45.215,0,82,36.786,82,82
			S301.214,280.691,255.999,280.691z"/>
	</g>
</g>
<g>
</g>
<g>
</g>
<g>
</g>
<g>
</g>
<g>
</g>
<g>
</g>
<g>
</g>
<g>
</g>
<g>
</g>
<g>
</g>
<g>
</g>
<g>
</g>
<g>
</g>
<g>
</g>
<g>
</g>
</svg>
