<svg height="512" viewBox="0 0 192 192" width="512" xmlns="http://www.w3.org/2000/svg"><path d="m191.97 94.783a24 24 0 0 0 -47.97 1.217v40a8 8 0 0 0 -8-8h-80a8 8 0 0 0 -8 8v-40a24 24 0 1 0 -32 22.629v41.371a8 8 0 0 0 8 8h8v16h16v-16h96v16h16v-16h8a8 8 0 0 0 8-8v-41.371a24.006 24.006 0 0 0 15.97-23.846z"/><path d="m56 96v24h80v-24a32.057 32.057 0 0 1 24-30.987v-17.013a40.045 40.045 0 0 0 -40-40h-48a40.045 40.045 0 0 0 -40 40v17.013a32.057 32.057 0 0 1 24 30.987zm56-56a8 8 0 1 1 -8 8 8 8 0 0 1 8-8zm0 24a8 8 0 1 1 -8 8 8 8 0 0 1 8-8zm-32-24a8 8 0 1 1 -8 8 8 8 0 0 1 8-8zm0 24a8 8 0 1 1 -8 8 8 8 0 0 1 8-8z"/></svg>