<svg id="Capa_1" enable-background="new 0 0 512.007 512.007" height="512" viewBox="0 0 512.007 512.007" width="512" xmlns="http://www.w3.org/2000/svg"><g><path d="m46.014 512.004c24.825 0 55.036-18.72 89.792-55.639 21.155-22.472 49.462-35.361 77.663-35.361h85.07c28.412 0 57.818 13.219 78.663 35.361 35.246 37.439 64.29 55.639 88.792 55.639 13.698 0 45.602-7.299 46.01-74.909.42-69.284-32.59-177.128-82.398-227.239-19.029-19.145-39.217-28.852-60.003-28.852-26.013 0-38.16 8.287-48.876 15.599-8.09 5.519-15.771 10.758-31.977 13.802 6.704-10.598 12.254-23.427 12.254-36.902 0-31.79-30.865-60.04-34.999-63.68-6.583-6.01-25.001-26.38-25.001-42.32 0-15.723 18.434-35.525 24.896-41.228 6.217-5.458 6.842-14.921 1.392-21.15-5.456-6.235-14.932-6.866-21.166-1.411-3.595 3.146-35.123 31.66-35.123 63.789 0 31.966 31.341 61.357 34.915 64.603.069.062.138.124.208.185 6.454 5.647 24.877 25.34 24.877 41.211 0 13.224-13.039 29.332-21.016 37.5h-23.254c-18.626-2.921-26.805-8.5-35.453-14.401-10.716-7.312-22.863-15.599-48.876-15.599-20.786 0-40.974 9.707-60.003 28.852-49.807 50.112-82.817 157.956-82.397 227.24.409 67.61 32.312 74.91 46.01 74.91zm57.665-280.999c13.191-13.272 26.221-20.001 38.726-20.001 16.754 0 22.806 4.13 31.968 10.381 20.861 14.234 41.347 19.619 51.224 19.619h60.813c10.245 0 30.674-5.598 51.224-19.619 9.162-6.251 15.214-10.381 31.968-10.381 12.505 0 25.534 6.729 38.726 20.001 43.886 44.152 74.051 143.953 73.676 205.908-.136 22.444-5.139 45.091-16.011 45.091-7.052 0-27.691-4.502-66.948-46.203-26.801-28.469-63.434-44.797-100.506-44.797h-85.07c-36.437 0-72.706 16.328-99.506 44.797-39.257 41.701-60.596 46.203-67.948 46.203-10.872 0-15.875-22.647-16.011-45.091-.376-61.955 29.79-161.756 73.675-205.908z"/><path d="m106.003 331.004h15v15c0 8.284 6.716 15 15 15s15-6.716 15-15v-15h15c8.284 0 15-6.716 15-15s-6.716-15-15-15h-15v-15c0-8.284-6.716-15-15-15s-15 6.716-15 15v15h-15c-8.284 0-15 6.716-15 15s6.716 15 15 15z"/><circle cx="376.003" cy="286.004" r="15"/><circle cx="376.003" cy="346.004" r="15"/><circle cx="346.003" cy="316.004" r="15"/><circle cx="406.003" cy="316.004" r="15"/><path d="m226.003 331.004h60c8.284 0 15-6.716 15-15s-6.716-15-15-15h-60c-8.284 0-15 6.716-15 15s6.716 15 15 15z"/></g></svg>