<svg id="Capa_1" enable-background="new 0 0 353.999 353.999" height="512" viewBox="0 0 353.999 353.999" width="512" xmlns="http://www.w3.org/2000/svg"><path d="m322.244 136.878c1.044-.82 1.788-1.977 2.089-3.275l29.504-123.919c.478-1.989-.118-4.089-1.57-5.535-1.446-1.452-3.558-2.048-5.535-1.57l-123.918 29.505c-1.298.307-2.449 1.044-3.275 2.095l-42.539 54.141-42.54-54.141c-.826-1.05-1.977-1.788-3.275-2.095l-123.918-29.504c-1.971-.478-4.083.118-5.535 1.57s-2.048 3.546-1.57 5.535l29.504 123.918c.307 1.298 1.05 2.455 2.089 3.275l66.214 52.022-4.142 5.275-18.901-18.901c-1.581-1.581-3.918-2.136-6.037-1.428-2.118.708-3.659 2.549-3.977 4.762l-5.901 41.306c-.26 1.841.36 3.694 1.67 5.01l13.537 13.531-64.196 64.19c-3.34 3.346-5.187 7.795-5.187 12.522s1.847 9.176 5.187 12.516l18.718 18.717c3.452 3.446 7.984 5.169 12.516 5.169s9.064-1.723 12.516-5.175l64.196-64.19 13.531 13.531c1.109 1.115 2.614 1.729 4.172 1.729.277 0 .555-.018.838-.059l40.498-5.783 40.498 5.783c.283.041.561.059.838.059 1.558 0 3.063-.614 4.172-1.729l13.531-13.531 64.194 64.196c3.34 3.34 7.783 5.181 12.516 5.181 4.727 0 9.176-1.841 12.516-5.181l18.718-18.718c6.898-6.898 6.898-18.133 0-25.032l-64.196-64.196 13.531-13.531c1.316-1.316 1.93-3.169 1.67-5.01l-5.901-41.306c-.319-2.213-1.853-4.06-3.977-4.762-2.118-.714-4.467-.153-6.037 1.428l-18.901 18.901-4.142-5.275zm-94.692-93.789 112.583-26.808-26.801 112.589-64.597 50.748-64.231-81.745zm-211.074-15.849 205.321 205.315-21.633 21.633-159.494-125.318zm160.528 250.108-14.758-14.758 14.758-11.595 14.758 11.595zm-9.554-33.859-13.607 10.698-21.633-21.633 9.382-9.382zm-60.195-47.295 24.99 19.638-8.379 8.379-21.633-21.633zm-61.829 141.857c-2.307 2.307-6.037 2.301-8.344 0l-18.718-18.718c-1.115-1.109-1.729-2.59-1.729-4.166s.614-3.057 1.729-4.172l40.592-40.592 27.061 27.061zm48.936-48.93-27.061-27.061 15.26-15.26 27.061 27.061zm43.395-3.818-15.614-15.614-35.405-35.405-15.614-15.614 3.812-26.701 89.522 89.522zm106.629-11.442 27.061-27.061 15.26 15.26-27.061 27.061zm91.257 45.478-18.718 18.712c-2.225 2.236-6.119 2.231-8.344 0l-40.592-40.586 27.061-27.061 40.592 40.592c2.296 2.301 2.296 6.042.001 8.343zm-52.754-100.675-15.614 15.614-35.405 35.405-15.614 15.614-26.701-3.812 89.528-89.528zm-52.748 5.547-115.575-115.575h38.863v-11.801h-50.665l-11.801-11.802h50.665v-11.802h-62.467l-54.341-54.341 101.637 24.199 125.317 159.489z"/><path d="m212.381 73.231h64.91v11.802h-64.91z"/><path d="m200.58 96.835h53.108v11.802h-53.108z"/></svg>